<svg width="46" height="46" fill="currentColor" viewBox="0 0 24 24" xmlns="http://www.w3.org/2000/svg">
  <path d="M18.327 22.5c-.915 0-2.2-.331-4.125-1.407-2.34-1.312-4.15-2.524-6.478-4.846-2.245-2.243-3.337-3.695-4.865-6.476C1.132 6.63 1.426 4.984 1.755 4.28c.392-.842.97-1.345 1.718-1.844a8.263 8.263 0 0 1 1.343-.712l.13-.057c.231-.105.583-.263 1.028-.094.297.112.562.34.978.75.852.84 2.015 2.71 2.445 3.63.288.619.479 1.028.48 1.486 0 .537-.27.95-.598 1.397l-.182.242c-.356.469-.435.604-.383.846.104.486.884 1.933 2.165 3.212 1.281 1.278 2.686 2.008 3.174 2.112.253.054.39-.027.875-.397.069-.053.14-.107.215-.162.5-.372.894-.635 1.418-.635h.003c.456 0 .847.198 1.493.524.844.426 2.771 1.575 3.616 2.427.412.415.64.679.753.976.169.447.01.797-.094 1.031l-.057.129a8.27 8.27 0 0 1-.716 1.34c-.499.745-1.004 1.322-1.846 1.714a3.16 3.16 0 0 1-1.386.304Z"></path>
</svg>