<svg width="46" height="46" fill="currentColor" viewBox="0 0 24 24" xmlns="http://www.w3.org/2000/svg">
  <path d="M10.224 7.838c0 .609 0 1.2.192 1.753-2.02 2.372-7.852 9.117-7.852 9.117l.136 1.701s1.632 1.547 1.875 1.313c.722-.703 1.163-1.181 1.163-1.181l.34-2.032 2.208-.163.177-2.194 2.326-.044.023-2.348 2.47.098.422-.883c.726.314 1.387.44 2.236.44 3.21 0 5.812-2.502 5.812-5.587 0-3.084-2.603-5.578-5.814-5.578s-5.714 2.503-5.714 5.588Zm8.848-1.088a1.821 1.821 0 1 1-3.643 0 1.821 1.821 0 0 1 3.643 0Z"></path>
</svg>